<?xml version="1.0" encoding="UTF-8"?><svg xmlns="http://www.w3.org/2000/svg" xmlns:xlink="http://www.w3.org/1999/xlink" contentScriptType="text/ecmascript" width="375pt" zoomAndPan="magnify" contentStyleType="text/css" viewBox="0 0 375 374.999991" height="374.999991pt" preserveAspectRatio="xMidYMid meet" version="1.2"><defs><g/></defs><g xml:id="surface1" id="surface1"><g style="fill:rgb(95.289612%,27.449036%,0.389099%);fill-opacity:1;"><g transform="translate(4.08879, 184.230274)"><path style="stroke:none;" d="M 48.890625 0 L 32.546875 0 L 15.703125 -32.484375 L 15.421875 -32.484375 C 15.816406 -27.378906 16.015625 -23.476562 16.015625 -20.78125 L 16.015625 0 L 4.984375 0 L 4.984375 -46.109375 L 21.265625 -46.109375 L 38.03125 -14.0625 L 38.21875 -14.0625 C 37.925781 -18.707031 37.78125 -22.441406 37.78125 -25.265625 L 37.78125 -46.109375 L 48.890625 -46.109375 Z M 48.890625 0 "/></g></g><g style="fill:rgb(95.289612%,27.449036%,0.389099%);fill-opacity:1;"><g transform="translate(57.958964, 184.230274)"><path style="stroke:none;" d="M 16.65625 0 L 4.328125 0 L 4.328125 -35.734375 L 16.65625 -35.734375 Z M 4 -44.625 C 4 -46.476562 4.515625 -47.851562 5.546875 -48.75 C 6.578125 -49.65625 8.238281 -50.109375 10.53125 -50.109375 C 12.820312 -50.109375 14.492188 -49.644531 15.546875 -48.71875 C 16.597656 -47.800781 17.125 -46.4375 17.125 -44.625 C 17.125 -41.007812 14.925781 -39.203125 10.53125 -39.203125 C 6.175781 -39.203125 4 -41.007812 4 -44.625 Z M 4 -44.625 "/></g></g><g style="fill:rgb(95.289612%,27.449036%,0.389099%);fill-opacity:1;"><g transform="translate(78.964547, 184.230274)"><path style="stroke:none;" d="M 37.96875 -35.734375 L 37.96875 -29.78125 L 33.078125 -27.96875 C 33.753906 -26.75 34.09375 -25.332031 34.09375 -23.71875 C 34.09375 -19.875 32.738281 -16.890625 30.03125 -14.765625 C 27.332031 -12.640625 23.304688 -11.578125 17.953125 -11.578125 C 16.617188 -11.578125 15.566406 -11.660156 14.796875 -11.828125 C 14.492188 -11.273438 14.34375 -10.757812 14.34375 -10.28125 C 14.34375 -9.675781 14.835938 -9.207031 15.828125 -8.875 C 16.816406 -8.550781 18.113281 -8.390625 19.71875 -8.390625 L 25.640625 -8.390625 C 33.648438 -8.390625 37.65625 -5.015625 37.65625 1.734375 C 37.65625 6.085938 35.800781 9.472656 32.09375 11.890625 C 28.382812 14.304688 23.175781 15.515625 16.46875 15.515625 C 11.394531 15.515625 7.484375 14.664062 4.734375 12.96875 C 1.992188 11.28125 0.625 8.847656 0.625 5.671875 C 0.625 1.410156 3.273438 -1.34375 8.578125 -2.59375 C 7.484375 -3.050781 6.53125 -3.796875 5.71875 -4.828125 C 4.914062 -5.859375 4.515625 -6.878906 4.515625 -7.890625 C 4.515625 -9.003906 4.816406 -9.984375 5.421875 -10.828125 C 6.035156 -11.679688 7.304688 -12.695312 9.234375 -13.875 C 7.390625 -14.695312 5.9375 -15.976562 4.875 -17.71875 C 3.8125 -19.46875 3.28125 -21.59375 3.28125 -24.09375 C 3.28125 -27.988281 4.601562 -31.003906 7.25 -33.140625 C 9.90625 -35.285156 13.691406 -36.359375 18.609375 -36.359375 C 19.265625 -36.359375 20.390625 -36.285156 21.984375 -36.140625 C 23.578125 -35.992188 24.753906 -35.859375 25.515625 -35.734375 Z M 11.03125 4.453125 C 11.03125 5.460938 11.578125 6.273438 12.671875 6.890625 C 13.765625 7.515625 15.226562 7.828125 17.0625 7.828125 C 20.050781 7.828125 22.441406 7.453125 24.234375 6.703125 C 26.035156 5.953125 26.9375 4.988281 26.9375 3.8125 C 26.9375 2.863281 26.390625 2.195312 25.296875 1.8125 C 24.203125 1.425781 22.632812 1.234375 20.59375 1.234375 L 15.765625 1.234375 C 14.441406 1.234375 13.320312 1.539062 12.40625 2.15625 C 11.488281 2.78125 11.03125 3.546875 11.03125 4.453125 Z M 14.921875 -24.03125 C 14.921875 -20.375 16.191406 -18.546875 18.734375 -18.546875 C 19.910156 -18.546875 20.816406 -19 21.453125 -19.90625 C 22.097656 -20.8125 22.421875 -22.164062 22.421875 -23.96875 C 22.421875 -27.664062 21.191406 -29.515625 18.734375 -29.515625 C 16.191406 -29.515625 14.921875 -27.6875 14.921875 -24.03125 Z M 14.921875 -24.03125 "/></g></g><g style="fill:rgb(95.289612%,27.449036%,0.389099%);fill-opacity:1;"><g transform="translate(118.105581, 184.230274)"><path style="stroke:none;" d="M 26.75 0 L 26.75 -19.484375 C 26.75 -24.285156 25.328125 -26.6875 22.484375 -26.6875 C 20.460938 -26.6875 18.972656 -25.835938 18.015625 -24.140625 C 17.066406 -22.453125 16.59375 -19.640625 16.59375 -15.703125 L 16.59375 0 L 4.265625 0 L 4.265625 -49.078125 L 16.59375 -49.078125 L 16.59375 -42.109375 C 16.59375 -38.953125 16.421875 -35.351562 16.078125 -31.3125 L 16.65625 -31.3125 C 17.832031 -33.164062 19.226562 -34.46875 20.84375 -35.21875 C 22.46875 -35.976562 24.351562 -36.359375 26.5 -36.359375 C 30.488281 -36.359375 33.59375 -35.207031 35.8125 -32.90625 C 38.03125 -30.601562 39.140625 -27.382812 39.140625 -23.25 L 39.140625 0 Z M 26.75 0 "/></g></g><g style="fill:rgb(95.289612%,27.449036%,0.389099%);fill-opacity:1;"><g transform="translate(161.378344, 184.230274)"><path style="stroke:none;" d="M 21.765625 -9.109375 C 23.421875 -9.109375 25.40625 -9.519531 27.71875 -10.34375 L 27.71875 -1.359375 C 26.0625 -0.640625 24.476562 -0.128906 22.96875 0.171875 C 21.46875 0.472656 19.707031 0.625 17.6875 0.625 C 13.550781 0.625 10.566406 -0.382812 8.734375 -2.40625 C 6.910156 -4.4375 6 -7.554688 6 -11.765625 L 6 -26.5 L 1.671875 -26.5 L 1.671875 -31.515625 L 7.15625 -35.390625 L 10.34375 -42.890625 L 18.421875 -42.890625 L 18.421875 -35.734375 L 27.1875 -35.734375 L 27.1875 -26.5 L 18.421875 -26.5 L 18.421875 -12.578125 C 18.421875 -10.265625 19.535156 -9.109375 21.765625 -9.109375 Z M 21.765625 -9.109375 "/></g></g><g style="fill:rgb(24.308777%,65.098572%,100%);fill-opacity:1;"><g transform="translate(194.155583, 184.230259)"><path style="stroke:none;" d="M 48.125 0 L 48.125 -19.421875 C 48.125 -21.847656 47.789062 -23.664062 47.125 -24.875 C 46.46875 -26.082031 45.425781 -26.6875 44 -26.6875 C 42.101562 -26.6875 40.710938 -25.875 39.828125 -24.25 C 38.953125 -22.632812 38.515625 -20.101562 38.515625 -16.65625 L 38.515625 0 L 26.140625 0 L 26.140625 -19.421875 C 26.140625 -21.847656 25.820312 -23.664062 25.1875 -24.875 C 24.5625 -26.082031 23.546875 -26.6875 22.140625 -26.6875 C 20.203125 -26.6875 18.789062 -25.820312 17.90625 -24.09375 C 17.03125 -22.375 16.59375 -19.554688 16.59375 -15.640625 L 16.59375 0 L 4.265625 0 L 4.265625 -35.734375 L 13.5625 -35.734375 L 15.109375 -31.3125 L 15.828125 -31.3125 C 16.773438 -32.957031 18.144531 -34.207031 19.9375 -35.0625 C 21.738281 -35.925781 23.785156 -36.359375 26.078125 -36.359375 C 31.234375 -36.359375 34.851562 -34.796875 36.9375 -31.671875 L 37.90625 -31.671875 C 38.914062 -33.140625 40.316406 -34.285156 42.109375 -35.109375 C 43.910156 -35.941406 45.894531 -36.359375 48.0625 -36.359375 C 52.289062 -36.359375 55.414062 -35.273438 57.4375 -33.109375 C 59.457031 -30.953125 60.46875 -27.664062 60.46875 -23.25 L 60.46875 0 Z M 48.125 0 "/></g></g><g style="fill:rgb(24.308777%,65.098572%,100%);fill-opacity:1;"><g transform="translate(258.749329, 184.230259)"><path style="stroke:none;" d="M 27.5625 0 L 25.203125 -4.734375 L 24.953125 -4.734375 C 23.285156 -2.671875 21.585938 -1.257812 19.859375 -0.5 C 18.140625 0.25 15.914062 0.625 13.1875 0.625 C 9.820312 0.625 7.171875 -0.378906 5.234375 -2.390625 C 3.296875 -4.410156 2.328125 -7.25 2.328125 -10.90625 C 2.328125 -14.71875 3.648438 -17.550781 6.296875 -19.40625 C 8.953125 -21.269531 12.789062 -22.316406 17.8125 -22.546875 L 23.78125 -22.734375 L 23.78125 -23.25 C 23.78125 -26.1875 22.328125 -27.65625 19.421875 -27.65625 C 16.816406 -27.65625 13.507812 -26.773438 9.5 -25.015625 L 5.921875 -33.15625 C 10.085938 -35.289062 15.347656 -36.359375 21.703125 -36.359375 C 26.285156 -36.359375 29.832031 -35.222656 32.34375 -32.953125 C 34.851562 -30.679688 36.109375 -27.507812 36.109375 -23.4375 L 36.109375 0 Z M 18.421875 -8.078125 C 19.910156 -8.078125 21.1875 -8.546875 22.25 -9.484375 C 23.3125 -10.429688 23.84375 -11.664062 23.84375 -13.1875 L 23.84375 -15.953125 L 21 -15.828125 C 16.945312 -15.679688 14.921875 -14.191406 14.921875 -11.359375 C 14.921875 -9.171875 16.085938 -8.078125 18.421875 -8.078125 Z M 18.421875 -8.078125 "/></g></g><g style="fill:rgb(24.308777%,65.098572%,100%);fill-opacity:1;"><g transform="translate(298.99426, 184.230259)"><path style="stroke:none;" d="M 25.828125 -36.359375 C 26.898438 -36.359375 27.921875 -36.273438 28.890625 -36.109375 L 29.578125 -35.984375 L 28.484375 -24.34375 C 27.472656 -24.601562 26.070312 -24.734375 24.28125 -24.734375 C 21.59375 -24.734375 19.640625 -24.113281 18.421875 -22.875 C 17.203125 -21.644531 16.59375 -19.875 16.59375 -17.5625 L 16.59375 0 L 4.265625 0 L 4.265625 -35.734375 L 13.4375 -35.734375 L 15.359375 -30.03125 L 15.953125 -30.03125 C 16.984375 -31.914062 18.421875 -33.441406 20.265625 -34.609375 C 22.109375 -35.773438 23.960938 -36.359375 25.828125 -36.359375 Z M 25.828125 -36.359375 "/></g></g><g style="fill:rgb(24.308777%,65.098572%,100%);fill-opacity:1;"><g transform="translate(329.304118, 184.230259)"><path style="stroke:none;" d="M 21.515625 0.625 C 15.554688 0.625 10.929688 -0.953125 7.640625 -4.109375 C 4.359375 -7.273438 2.71875 -11.78125 2.71875 -17.625 C 2.71875 -23.664062 4.238281 -28.296875 7.28125 -31.515625 C 10.332031 -34.742188 14.6875 -36.359375 20.34375 -36.359375 C 25.726562 -36.359375 29.882812 -34.953125 32.8125 -32.140625 C 35.75 -29.335938 37.21875 -25.300781 37.21875 -20.03125 L 37.21875 -14.546875 L 15.171875 -14.546875 C 15.253906 -12.546875 15.984375 -10.976562 17.359375 -9.84375 C 18.734375 -8.707031 20.613281 -8.140625 23 -8.140625 C 25.15625 -8.140625 27.144531 -8.34375 28.96875 -8.75 C 30.789062 -9.164062 32.765625 -9.863281 34.890625 -10.84375 L 34.890625 -1.984375 C 32.953125 -0.992188 30.953125 -0.3125 28.890625 0.0625 C 26.828125 0.4375 24.367188 0.625 21.515625 0.625 Z M 20.78125 -27.96875 C 19.332031 -27.96875 18.117188 -27.507812 17.140625 -26.59375 C 16.160156 -25.6875 15.585938 -24.253906 15.421875 -22.296875 L 26.015625 -22.296875 C 25.972656 -24.023438 25.484375 -25.398438 24.546875 -26.421875 C 23.617188 -27.453125 22.363281 -27.96875 20.78125 -27.96875 Z M 20.78125 -27.96875 "/></g></g></g></svg>